0
SECTION
2
HEADER
9
$INSUNITS
70
1
9
$ACADVER
1
AC1014
9
$HANDSEED
5
FFFF
0
ENDSEC
0
SECTION
2
TABLES
0
TABLE
2
VPORT
5
8
100
AcDbSymbolTable
0
ENDTAB
0
TABLE
2
LTYPE
5
5
100
AcDbSymbolTable
0
LTYPE
5
14
100
AcDbSymbolTableRecord
100
AcDbLinetypeTableRecord
2
BYBLOCK
70
0
0
LTYPE
5
15
100
AcDbSymbolTableRecord
100
AcDbLinetypeTableRecord
2
BYLAYER
70
0
0
ENDTAB
0
TABLE
2
LAYER
5
2
100
AcDbSymbolTable
70
2
0
LAYER
5
50
100
AcDbSymbolTableRecord
100
AcDbLayerTableRecord
2
0
70
0
6
CONTINUOUS
0
ENDTAB
0
TABLE
2
STYLE
5
3
100
AcDbSymbolTable
70
1
0
STYLE
5
11
100
AcDbSymbolTableRecord
100
AcDbTextStyleTableRecord
2
STANDARD
70
0
0
ENDTAB
0
TABLE
2
VIEW
5
6
100
AcDbSymbolTable
70
0
0
ENDTAB
0
TABLE
2
UCS
5
7
100
AcDbSymbolTable
70
0
0
ENDTAB
0
TABLE
2
APPID
5
9
100
AcDbSymbolTable
70
2
0
APPID
5
12
100
AcDbSymbolTableRecord
100
AcDbRegAppTableRecord
2
ACAD
70
0
0
ENDTAB
0
TABLE
2
DIMSTYLE
5
A
100
AcDbSymbolTable
70
1
0
ENDTAB
0
TABLE
2
BLOCK_RECORD
5
1
100
AcDbSymbolTable
70
1
0
BLOCK_RECORD
5
1F
100
AcDbSymbolTableRecord
100
AcDbBlockTableRecord
2
*MODEL_SPACE
0
BLOCK_RECORD
5
1B
100
AcDbSymbolTableRecord
100
AcDbBlockTableRecord
2
*PAPER_SPACE
0
ENDTAB
0
ENDSEC
0
SECTION
2
BLOCKS
0
BLOCK
5
20
100
AcDbEntity
100
AcDbBlockBegin
2
*MODEL_SPACE
0
ENDBLK
5
21
100
AcDbEntity
100
AcDbBlockEnd
0
BLOCK
5
1C
100
AcDbEntity
100
AcDbBlockBegin
2
*PAPER_SPACE
0
ENDBLK
5
1D
100
AcDbEntity
100
AcDbBlockEnd
0
ENDSEC
0
SECTION
2
ENTITIES
0
LWPOLYLINE
5
100
100
AcDbEntity
8
0
100
AcDbPolyline
90
8
70
1
43
0.0
10
-0.1767766952966372
20
5.9999999999999973
42
-0.99999999999999989
10
1.0927391974657052e-16
20
5.8232233047033608
10
3.3874915121436862e-16
20
2.176776665259649
42
-0.99999999999999989
10
-0.17677669529663698
20
1.9999999699630124
10
-0.55322330470336289
20
1.9999999699630129
42
-0.99999999999999989
10
-0.72999999999999954
20
2.1767766652596494
10
-0.72999999999999943
20
5.8232233047033608
42
-0.99999999999999989
10
-0.55322330470336267
20
5.9999999999999973
0
ARC
5
101
100
AcDbEntity
8
0
100
AcDbCircle
10
-3.0683883476483169
20
5.9116116523516782
30
0
40
0.12499999999999994
210
-0
220
0
230
1
100
AcDbArc
50
-45
51
134.99999999999943
0
LINE
5
102
100
AcDbEntity
8
0
100
AcDbLine
10
-2.9799999999999986
20
5.8232233047033599
30
0
11
-2.9799999999999986
21
2.1767766952966356
31
0
0
ARC
5
103
100
AcDbEntity
8
0
100
AcDbCircle
10
-3.0683883476483169
20
2.0883883476483169
30
0
40
0.12499999999999994
210
0
220
0
230
1
100
AcDbArc
50
-135.00000000000031
51
45.000000000000135
0
LINE
5
104
100
AcDbEntity
8
0
100
AcDbLine
10
-3.1567766952966356
20
1.9999999999999991
30
0
11
-3.7099999999999986
21
1.9999999999999989
31
0
0
LINE
5
105
100
AcDbEntity
8
0
100
AcDbLine
10
-3.7099999999999986
20
1.9999999999999989
30
0
11
-3.7099999999999986
21
0
31
0
0
LINE
5
106
100
AcDbEntity
8
0
100
AcDbLine
10
-3.7099999999999986
20
0
30
0
11
2.9799999999999978
21
0
31
0
0
LINE
5
107
100
AcDbEntity
8
0
100
AcDbLine
10
2.9799999999999978
20
0
30
0
11
2.9799999999999978
21
1.9999999699630124
31
0
0
LINE
5
108
100
AcDbEntity
8
0
100
AcDbLine
10
2.9799999999999978
20
1.9999999699630124
30
0
11
2.4267766952966348
21
1.9999999699630124
31
0
0
ARC
5
109
100
AcDbEntity
8
0
100
AcDbCircle
10
2.3383883476483165
20
2.0883883176113311
30
0
40
0.12499999999999994
210
0
220
0
230
1
100
AcDbArc
50
135
51
314.99999999999983
0
LINE
5
110
100
AcDbEntity
8
0
100
AcDbLine
10
2.2499999999999982
20
2.1767766652596494
30
0
11
2.2499999999999982
21
5.8232232746663737
31
0
0
ARC
5
111
100
AcDbEntity
8
0
100
AcDbCircle
10
2.338388347648316
20
5.9116116223146911
30
0
40
0.12500000000000042
210
0
220
-0
230
1
100
AcDbArc
50
45.000000000000291
51
224.99999999999986
0
LINE
5
112
100
AcDbEntity
8
0
100
AcDbLine
10
2.4267766952966343
20
5.9999999699630102
30
0
11
2.9799999999999978
21
5.9999999699630102
31
0
0
LINE
5
113
100
AcDbEntity
8
0
100
AcDbLine
10
2.9799999999999978
20
5.9999999699630102
30
0
11
2.9799999999999978
21
7.9999998798520497
31
0
0
LINE
5
114
100
AcDbEntity
8
0
100
AcDbLine
10
2.9799999999999978
20
7.9999998798520497
30
0
11
1.8117766937092394
21
7.9999999008325622
31
0
0
ARC
5
115
100
AcDbEntity
8
0
100
AcDbCircle
10
1.7233883484420149
20
8.0883882508619749
30
0
40
0.12499999999999994
210
0
220
0
230
1
100
AcDbArc
50
135.00000051449729
51
314.99999845650871
0
LINE
5
116
100
AcDbEntity
8
0
100
AcDbLine
10
1.6349999999999985
20
8.1767765977165947
30
0
11
1.6349999999999987
21
8.7299999399260226
31
0
0
LINE
5
117
100
AcDbEntity
8
0
100
AcDbLine
10
1.6349999999999987
20
8.7299999399260226
30
0
11
-2.3649999999999989
21
8.7299999399260226
31
0
0
LINE
5
118
100
AcDbEntity
8
0
100
AcDbLine
10
-2.3649999999999989
20
8.7299999399260226
30
0
11
-2.3649999999999993
21
8.1767766727287228
31
0
0
ARC
5
119
100
AcDbEntity
8
0
100
AcDbCircle
10
-2.45338834685462
20
8.0883883242867061
30
0
40
0.12499999999999999
210
0
220
0
230
1
100
AcDbArc
50
-135.00000154349135
51
45.00000051449706
0
LINE
5
120
100
AcDbEntity
8
0
100
AcDbLine
10
-2.5417766968840323
20
7.9999999790194822
30
0
11
-3.7099999999999986
21
7.9999999999999956
31
0
0
LINE
5
121
100
AcDbEntity
8
0
100
AcDbLine
10
-3.7099999999999986
20
7.9999999999999956
30
0
11
-3.7099999999999986
21
5.9999999999999964
31
0
0
LINE
5
122
100
AcDbEntity
8
0
100
AcDbLine
10
-3.7099999999999986
20
5.9999999999999964
30
0
11
-3.1567766952966343
21
5.9999999999999973
31
0
0
ENDSEC
0
SECTION
2
OBJECTS
0
DICTIONARY
5
C
100
AcDbDictionary
3
ACAD_GROUP
350
D
3
ACAD_MLINESTYLE
350
17
0
DICTIONARY
5
D
100
AcDbDictionary
0
DICTIONARY
5
1A
330
C
100
AcDbDictionary
0
DICTIONARY
5
17
100
AcDbDictionary
0
ENDSEC
0
EOF
